<svg xmlns="http://www.w3.org/2000/svg" width="1048" height="1048" fill="none"><g clip-path="url(#a)"><path fill="#fff" fill-rule="evenodd" d="M500.944 20.96a18.863 18.863 0 0 1-32.203 13.339A18.863 18.863 0 0 1 482.08 2.096a18.865 18.865 0 0 1 18.864 18.864zm167.68 0a18.863 18.863 0 0 1-32.203 13.339A18.863 18.863 0 0 1 649.76 2.096a18.865 18.865 0 0 1 18.864 18.864zm41.92 0a18.867 18.867 0 0 1-18.864 18.864 18.865 18.865 0 0 1-13.339-32.203 18.865 18.865 0 0 1 32.203 13.339zm-335.36 41.92a18.863 18.863 0 0 1-32.203 13.339 18.863 18.863 0 0 1 13.339-32.203 18.865 18.865 0 0 1 18.864 18.864zm41.92 0a18.863 18.863 0 0 1-32.203 13.339 18.863 18.863 0 0 1 13.339-32.203 18.865 18.865 0 0 1 18.864 18.864zm41.92 0a18.863 18.863 0 0 1-32.203 13.339 18.863 18.863 0 0 1 13.339-32.203 18.865 18.865 0 0 1 18.864 18.864zm41.92 0a18.863 18.863 0 0 1-32.203 13.339 18.863 18.863 0 0 1 13.339-32.203 18.865 18.865 0 0 1 18.864 18.864zm83.84 0a18.863 18.863 0 0 1-32.203 13.339 18.863 18.863 0 0 1 13.339-32.203 18.865 18.865 0 0 1 18.864 18.864zm41.92 0a18.863 18.863 0 0 1-32.203 13.339 18.863 18.863 0 0 1 13.339-32.203 18.865 18.865 0 0 1 18.864 18.864zm41.92 0a18.863 18.863 0 0 1-32.203 13.339 18.863 18.863 0 0 1 13.339-32.203 18.865 18.865 0 0 1 18.864 18.864zm-293.44 41.92a18.863 18.863 0 1 1-37.727.001 18.863 18.863 0 0 1 37.727-.001zm83.84 0a18.863 18.863 0 1 1-37.727.001 18.863 18.863 0 0 1 37.727-.001zm125.76 0a18.863 18.863 0 1 1-37.727.001 18.863 18.863 0 0 1 37.727-.001zm83.84 0a18.863 18.863 0 1 1-37.727.001 18.863 18.863 0 0 1 37.727-.001zm-251.52 41.92a18.863 18.863 0 1 1-37.727.001 18.863 18.863 0 0 1 37.727-.001zm83.84 0a18.863 18.863 0 1 1-37.727.001 18.863 18.863 0 0 1 37.727-.001zm41.92 0a18.863 18.863 0 1 1-37.727.001 18.863 18.863 0 0 1 37.727-.001zm41.92 0a18.863 18.863 0 1 1-37.727.001 18.863 18.863 0 0 1 37.727-.001zm83.84 0a18.863 18.863 0 1 1-37.727.001 18.863 18.863 0 0 1 37.727-.001zm41.92 0a18.868 18.868 0 0 1-18.864 18.864 18.863 18.863 0 1 1 18.864-18.864zm-335.36 41.92a18.863 18.863 0 1 1-37.727.001 18.863 18.863 0 0 1 37.727-.001zm41.92 0a18.863 18.863 0 1 1-37.727.001 18.863 18.863 0 0 1 37.727-.001zm83.84 0a18.863 18.863 0 1 1-37.727.001 18.863 18.863 0 0 1 37.727-.001zm83.84 0a18.863 18.863 0 1 1-37.727.001 18.863 18.863 0 0 1 37.727-.001zm125.76 0a18.868 18.868 0 0 1-18.864 18.864 18.863 18.863 0 1 1 18.864-18.864zm-335.36 41.92a18.863 18.863 0 1 1-37.727.001 18.863 18.863 0 0 1 37.727-.001zm83.84 0a18.863 18.863 0 1 1-37.727.001 18.863 18.863 0 0 1 37.727-.001zm41.92 0a18.863 18.863 0 1 1-37.727.001 18.863 18.863 0 0 1 37.727-.001zm167.68 0a18.863 18.863 0 1 1-37.727.001 18.863 18.863 0 0 1 37.727-.001zm-293.44 41.92a18.863 18.863 0 1 1-37.727.001 18.863 18.863 0 0 1 37.727-.001zm83.84 0a18.863 18.863 0 1 1-37.727.001 18.863 18.863 0 0 1 37.727-.001zm83.84 0a18.863 18.863 0 1 1-37.727.001 18.863 18.863 0 0 1 37.727-.001zm83.84 0a18.863 18.863 0 1 1-37.727.001 18.863 18.863 0 0 1 37.727-.001zm83.84 0a18.868 18.868 0 0 1-18.864 18.864 18.863 18.863 0 1 1 18.864-18.864zm-335.36 41.92a18.863 18.863 0 1 1-37.727.001 18.863 18.863 0 0 1 37.727-.001zm83.84 0a18.863 18.863 0 1 1-37.727.001 18.863 18.863 0 0 1 37.727-.001zm83.84 0a18.863 18.863 0 1 1-37.727.001 18.863 18.863 0 0 1 37.727-.001zm-503.04 41.92a18.865 18.865 0 0 1-32.203 13.339 18.865 18.865 0 1 1 32.203-13.339zm41.92 0a18.865 18.865 0 0 1-32.203 13.339 18.865 18.865 0 1 1 32.203-13.339zm83.84 0a18.863 18.863 0 1 1-37.727.001 18.863 18.863 0 0 1 37.727-.001zm125.76 0a18.863 18.863 0 1 1-37.727.001 18.863 18.863 0 0 1 37.727-.001zm41.92 0a18.863 18.863 0 1 1-37.727.001 18.863 18.863 0 0 1 37.727-.001zm167.68 0a18.863 18.863 0 1 1-37.727.001 18.863 18.863 0 0 1 37.727-.001zm41.92 0a18.863 18.863 0 1 1-37.727.001 18.863 18.863 0 0 1 37.727-.001zm41.92 0a18.863 18.863 0 1 1-37.727.001 18.863 18.863 0 0 1 37.727-.001zm41.92 0a18.863 18.863 0 1 1-37.727.001 18.863 18.863 0 0 1 37.727-.001zm83.84 0a18.868 18.868 0 0 1-18.864 18.864 18.863 18.863 0 1 1 18.864-18.864zm83.84 0a18.868 18.868 0 0 1-18.864 18.864 18.863 18.863 0 1 1 18.864-18.864zm41.92 0a18.868 18.868 0 0 1-18.864 18.864 18.863 18.863 0 1 1 18.864-18.864zm41.92 0a18.868 18.868 0 0 1-18.864 18.864 18.863 18.863 0 1 1 18.864-18.864zm83.84 0a18.868 18.868 0 0 1-18.864 18.864 18.863 18.863 0 1 1 18.864-18.864zm41.916 0c0 5.003-1.98 9.801-5.521 13.339a18.863 18.863 0 1 1 0-26.678 18.847 18.847 0 0 1 5.521 13.339zM81.744 398.24a18.865 18.865 0 0 1-32.203 13.339 18.865 18.865 0 1 1 32.203-13.339zm83.84 0a18.863 18.863 0 1 1-37.727.001 18.863 18.863 0 0 1 37.727-.001zm41.92 0a18.863 18.863 0 1 1-37.727.001 18.863 18.863 0 0 1 37.727-.001zm209.6 0a18.863 18.863 0 1 1-37.727.001 18.863 18.863 0 0 1 37.727-.001zm83.84 0a18.863 18.863 0 1 1-37.727.001 18.863 18.863 0 0 1 37.727-.001zm41.92 0a18.863 18.863 0 1 1-37.727.001 18.863 18.863 0 0 1 37.727-.001zm41.92 0a18.863 18.863 0 1 1-37.727.001 18.863 18.863 0 0 1 37.727-.001zm41.92 0a18.863 18.863 0 1 1-37.727.001 18.863 18.863 0 0 1 37.727-.001zm41.92 0a18.863 18.863 0 1 1-37.727.001 18.863 18.863 0 0 1 37.727-.001zm41.92 0a18.868 18.868 0 0 1-18.864 18.864 18.863 18.863 0 1 1 18.864-18.864zm83.84 0a18.868 18.868 0 0 1-18.864 18.864 18.863 18.863 0 1 1 18.864-18.864zm83.84 0a18.868 18.868 0 0 1-18.864 18.864 18.863 18.863 0 1 1 18.864-18.864zm125.756 0c0 5.003-1.98 9.801-5.521 13.339a18.863 18.863 0 1 1 0-26.678 18.847 18.847 0 0 1 5.521 13.339zM39.824 440.16a18.865 18.865 0 0 1-32.203 13.339 18.865 18.865 0 1 1 32.203-13.339zm83.84 0a18.863 18.863 0 1 1-37.727.001 18.863 18.863 0 0 1 37.727-.001zm167.68 0a18.863 18.863 0 1 1-37.727.001 18.863 18.863 0 0 1 37.727-.001zm209.6 0a18.863 18.863 0 1 1-37.727.001 18.863 18.863 0 0 1 37.727-.001zm41.92 0a18.863 18.863 0 1 1-37.727.001 18.863 18.863 0 0 1 37.727-.001zm209.6 0a18.868 18.868 0 0 1-18.864 18.864 18.863 18.863 0 1 1 18.864-18.864zm41.92 0a18.868 18.868 0 0 1-18.864 18.864 18.863 18.863 0 1 1 18.864-18.864zm41.92 0a18.868 18.868 0 0 1-18.864 18.864 18.863 18.863 0 1 1 18.864-18.864zm83.84 0a18.868 18.868 0 0 1-18.864 18.864 18.863 18.863 0 1 1 18.864-18.864zm41.92 0a18.868 18.868 0 0 1-18.864 18.864 18.863 18.863 0 1 1 18.864-18.864zm-796.48 41.92a18.863 18.863 0 1 1-37.727.001 18.863 18.863 0 0 1 37.727-.001zm41.92 0a18.863 18.863 0 1 1-37.727.001 18.863 18.863 0 0 1 37.727-.001zm41.92 0a18.863 18.863 0 1 1-37.727.001 18.863 18.863 0 0 1 37.727-.001zm83.84 0a18.863 18.863 0 1 1-37.727.001 18.863 18.863 0 0 1 37.727-.001zm41.92 0a18.863 18.863 0 1 1-37.727.001 18.863 18.863 0 0 1 37.727-.001zm41.92 0a18.863 18.863 0 1 1-37.727.001 18.863 18.863 0 0 1 37.727-.001zm41.92 0a18.863 18.863 0 1 1-37.727.001 18.863 18.863 0 0 1 37.727-.001zm41.92 0a18.863 18.863 0 1 1-37.727.001 18.863 18.863 0 0 1 37.727-.001zm41.92 0a18.863 18.863 0 1 1-37.727.001 18.863 18.863 0 0 1 37.727-.001zm83.84 0a18.863 18.863 0 1 1-37.727.001 18.863 18.863 0 0 1 37.727-.001zm83.84 0a18.868 18.868 0 0 1-18.864 18.864 18.863 18.863 0 1 1 18.864-18.864zm41.92 0a18.868 18.868 0 0 1-18.864 18.864 18.863 18.863 0 1 1 18.864-18.864zm41.92 0a18.868 18.868 0 0 1-18.864 18.864 18.863 18.863 0 1 1 18.864-18.864zm41.92 0a18.868 18.868 0 0 1-18.864 18.864 18.863 18.863 0 1 1 18.864-18.864zm41.92 0a18.868 18.868 0 0 1-18.864 18.864 18.863 18.863 0 1 1 18.864-18.864zm167.676 0a18.85 18.85 0 0 1-5.52 13.339 18.875 18.875 0 0 1-13.34 5.525c-5 0-9.8-1.987-13.34-5.525a18.85 18.85 0 0 1-5.52-13.339 18.85 18.85 0 0 1 5.52-13.339 18.875 18.875 0 0 1 13.34-5.525c5 0 9.8 1.987 13.34 5.525a18.85 18.85 0 0 1 5.52 13.339zM39.824 524a18.865 18.865 0 0 1-32.203 13.339A18.865 18.865 0 1 1 39.824 524zm167.68 0a18.863 18.863 0 1 1-37.727.001 18.863 18.863 0 0 1 37.727-.001zm83.84 0a18.863 18.863 0 1 1-37.727.001 18.863 18.863 0 0 1 37.727-.001zm83.84 0a18.863 18.863 0 1 1-37.727.001 18.863 18.863 0 0 1 37.727-.001zm83.84 0a18.863 18.863 0 1 1-37.727.001 18.863 18.863 0 0 1 37.727-.001zm125.76 0a18.863 18.863 0 1 1-37.727.001 18.863 18.863 0 0 1 37.727-.001zm167.68 0a18.868 18.868 0 0 1-18.864 18.864A18.863 18.863 0 1 1 752.464 524zm41.92 0a18.868 18.868 0 0 1-18.864 18.864A18.863 18.863 0 1 1 794.384 524zm41.92 0a18.868 18.868 0 0 1-18.864 18.864A18.863 18.863 0 1 1 836.304 524zm125.76 0a18.868 18.868 0 0 1-18.864 18.864A18.863 18.863 0 1 1 962.064 524zm41.916 0c0 5.003-1.98 9.801-5.521 13.339a18.863 18.863 0 1 1 0-26.678A18.847 18.847 0 0 1 1003.98 524zm41.92 0a18.85 18.85 0 0 1-5.52 13.339 18.875 18.875 0 0 1-13.34 5.525c-5 0-9.8-1.987-13.34-5.525a18.85 18.85 0 0 1-5.52-13.339 18.85 18.85 0 0 1 5.52-13.339 18.875 18.875 0 0 1 13.34-5.525c5 0 9.8 1.987 13.34 5.525A18.85 18.85 0 0 1 1045.9 524zm-922.236 41.92a18.863 18.863 0 1 1-37.727.001 18.863 18.863 0 0 1 37.727-.001zm125.76 0a18.863 18.863 0 1 1-37.727.001 18.863 18.863 0 0 1 37.727-.001zm167.68 0a18.863 18.863 0 1 1-37.727.001 18.863 18.863 0 0 1 37.727-.001zm335.36 0a18.868 18.868 0 0 1-18.864 18.864 18.863 18.863 0 1 1 18.864-18.864zm83.84 0a18.868 18.868 0 0 1-18.864 18.864 18.863 18.863 0 1 1 18.864-18.864zm41.92 0a18.868 18.868 0 0 1-18.864 18.864 18.863 18.863 0 1 1 18.864-18.864zm83.84 0a18.868 18.868 0 0 1-18.864 18.864 18.863 18.863 0 1 1 18.864-18.864zm41.916 0c0 5.003-1.98 9.801-5.521 13.339a18.863 18.863 0 1 1 0-26.678 18.847 18.847 0 0 1 5.521 13.339zM39.824 607.84a18.865 18.865 0 0 1-32.203 13.339 18.865 18.865 0 1 1 32.203-13.339zm125.76 0a18.863 18.863 0 1 1-37.727.001 18.863 18.863 0 0 1 37.727-.001zm125.76 0a18.863 18.863 0 1 1-37.727.001 18.863 18.863 0 0 1 37.727-.001zm41.92 0a18.863 18.863 0 1 1-37.727.001 18.863 18.863 0 0 1 37.727-.001zm41.92 0a18.863 18.863 0 1 1-37.727.001 18.863 18.863 0 0 1 37.727-.001zm41.92 0a18.863 18.863 0 1 1-37.727.001 18.863 18.863 0 0 1 37.727-.001zm41.92 0a18.863 18.863 0 1 1-37.727.001 18.863 18.863 0 0 1 37.727-.001zm83.84 0a18.863 18.863 0 1 1-37.727.001 18.863 18.863 0 0 1 37.727-.001zm41.92 0a18.863 18.863 0 1 1-37.727.001 18.863 18.863 0 0 1 37.727-.001zm41.92 0a18.863 18.863 0 1 1-37.727.001 18.863 18.863 0 0 1 37.727-.001zm41.92 0a18.863 18.863 0 1 1-37.727.001 18.863 18.863 0 0 1 37.727-.001zm41.92 0a18.868 18.868 0 0 1-18.864 18.864 18.863 18.863 0 1 1 18.864-18.864zm41.92 0a18.868 18.868 0 0 1-18.864 18.864 18.863 18.863 0 1 1 18.864-18.864zm41.92 0a18.868 18.868 0 0 1-18.864 18.864 18.863 18.863 0 1 1 18.864-18.864zm83.84 0a18.868 18.868 0 0 1-18.864 18.864 18.863 18.863 0 1 1 18.864-18.864zm41.92 0a18.868 18.868 0 0 1-18.864 18.864 18.863 18.863 0 1 1 18.864-18.864zm-838.4 41.92a18.865 18.865 0 0 1-32.203 13.339 18.865 18.865 0 1 1 32.203-13.339zm41.92 0a18.863 18.863 0 1 1-37.727.001 18.863 18.863 0 0 1 37.727-.001zm125.76 0a18.863 18.863 0 1 1-37.727.001 18.863 18.863 0 0 1 37.727-.001zm83.84 0a18.863 18.863 0 1 1-37.727.001 18.863 18.863 0 0 1 37.727-.001zm41.92 0a18.863 18.863 0 1 1-37.727.001 18.863 18.863 0 0 1 37.727-.001zm41.92 0a18.863 18.863 0 1 1-37.727.001 18.863 18.863 0 0 1 37.727-.001zm125.76 0a18.863 18.863 0 1 1-37.727.001 18.863 18.863 0 0 1 37.727-.001zm41.92 0a18.863 18.863 0 1 1-37.727.001 18.863 18.863 0 0 1 37.727-.001zm167.68 0a18.868 18.868 0 0 1-18.864 18.864 18.863 18.863 0 1 1 18.864-18.864zm41.92 0a18.868 18.868 0 0 1-18.864 18.864 18.863 18.863 0 1 1 18.864-18.864zm41.92 0a18.868 18.868 0 0 1-18.864 18.864 18.863 18.863 0 1 1 18.864-18.864zm-796.48 41.92a18.865 18.865 0 0 1-32.203 13.339 18.865 18.865 0 1 1 32.203-13.339zm41.92 0a18.865 18.865 0 0 1-32.203 13.339 18.865 18.865 0 1 1 32.203-13.339zm41.92 0a18.863 18.863 0 1 1-37.727.001 18.863 18.863 0 0 1 37.727-.001zm83.84 0a18.863 18.863 0 1 1-37.727.001 18.863 18.863 0 0 1 37.727-.001zm41.92 0a18.863 18.863 0 1 1-37.727.001 18.863 18.863 0 0 1 37.727-.001zm41.92 0a18.863 18.863 0 1 1-37.727.001 18.863 18.863 0 0 1 37.727-.001zm167.68 0a18.863 18.863 0 1 1-37.727.001 18.863 18.863 0 0 1 37.727-.001zm125.76 0a18.863 18.863 0 1 1-37.727.001 18.863 18.863 0 0 1 37.727-.001zm125.76 0a18.868 18.868 0 0 1-18.864 18.864 18.868 18.868 0 0 1-18.864-18.864 18.863 18.863 0 1 1 37.728 0zm41.92 0a18.868 18.868 0 0 1-18.864 18.864 18.868 18.868 0 0 1-18.864-18.864 18.863 18.863 0 1 1 37.728 0zm41.92 0a18.868 18.868 0 0 1-18.864 18.864 18.868 18.868 0 0 1-18.864-18.864 18.863 18.863 0 1 1 37.728 0zm41.92 0a18.868 18.868 0 0 1-18.864 18.864 18.868 18.868 0 0 1-18.864-18.864 18.863 18.863 0 1 1 37.728 0zm41.92 0a18.868 18.868 0 0 1-18.864 18.864 18.868 18.868 0 0 1-18.864-18.864 18.863 18.863 0 1 1 37.728 0zm167.676 0a18.85 18.85 0 0 1-5.52 13.339 18.879 18.879 0 0 1-13.34 5.525c-5 0-9.8-1.988-13.34-5.525a18.85 18.85 0 0 1-5.52-13.339 18.85 18.85 0 0 1 5.52-13.339 18.875 18.875 0 0 1 13.34-5.525c5 0 9.8 1.987 13.34 5.525a18.85 18.85 0 0 1 5.52 13.339zM375.184 733.6a18.863 18.863 0 1 1-37.727.001 18.863 18.863 0 0 1 37.727-.001zm125.76 0a18.863 18.863 0 1 1-37.727.001 18.863 18.863 0 0 1 37.727-.001zm83.84 0a18.863 18.863 0 1 1-37.727.001 18.863 18.863 0 0 1 37.727-.001zm125.76 0a18.868 18.868 0 0 1-18.864 18.864 18.868 18.868 0 0 1-18.864-18.864 18.863 18.863 0 1 1 37.728 0zm167.68 0a18.868 18.868 0 0 1-18.864 18.864 18.868 18.868 0 0 1-18.864-18.864 18.863 18.863 0 1 1 37.728 0zm-503.04 41.92a18.863 18.863 0 1 1-37.727.001 18.863 18.863 0 0 1 37.727-.001zm41.92 0a18.863 18.863 0 1 1-37.727.001 18.863 18.863 0 0 1 37.727-.001zm41.92 0a18.863 18.863 0 1 1-37.727.001 18.863 18.863 0 0 1 37.727-.001zm83.84 0a18.863 18.863 0 1 1-37.727.001 18.863 18.863 0 0 1 37.727-.001zm41.92 0a18.863 18.863 0 1 1-37.727.001 18.863 18.863 0 0 1 37.727-.001zm125.76 0a18.868 18.868 0 0 1-18.864 18.864 18.868 18.868 0 0 1-18.864-18.864 18.863 18.863 0 1 1 37.728 0zm83.84 0a18.868 18.868 0 0 1-18.864 18.864 18.868 18.868 0 0 1-18.864-18.864 18.863 18.863 0 1 1 37.728 0zm83.84 0a18.868 18.868 0 0 1-18.864 18.864 18.868 18.868 0 0 1-18.864-18.864 18.863 18.863 0 1 1 37.728 0zm41.92 0a18.868 18.868 0 0 1-18.864 18.864 18.868 18.868 0 0 1-18.864-18.864 18.863 18.863 0 1 1 37.728 0zm83.836 0c0 5.003-1.98 9.801-5.521 13.339a18.868 18.868 0 0 1-26.678 0 18.863 18.863 0 1 1 26.678-26.678 18.847 18.847 0 0 1 5.521 13.339zm41.92 0a18.85 18.85 0 0 1-5.52 13.339 18.879 18.879 0 0 1-13.34 5.525c-5 0-9.8-1.988-13.34-5.525a18.85 18.85 0 0 1-5.52-13.339 18.85 18.85 0 0 1 5.52-13.339 18.875 18.875 0 0 1 13.34-5.525c5 0 9.8 1.987 13.34 5.525a18.85 18.85 0 0 1 5.52 13.339zm-503.036 41.92a18.863 18.863 0 1 1-37.727.001 18.863 18.863 0 0 1 37.727-.001zm83.84 0a18.863 18.863 0 1 1-37.727.001 18.863 18.863 0 0 1 37.727-.001zm83.84 0a18.868 18.868 0 0 1-18.864 18.864 18.868 18.868 0 0 1-18.864-18.864 18.863 18.863 0 1 1 37.728 0zm167.68 0a18.868 18.868 0 0 1-18.864 18.864 18.868 18.868 0 0 1-18.864-18.864 18.863 18.863 0 1 1 37.728 0zm41.92 0a18.868 18.868 0 0 1-18.864 18.864 18.868 18.868 0 0 1-18.864-18.864 18.863 18.863 0 1 1 37.728 0zm41.92 0a18.868 18.868 0 0 1-18.864 18.864 18.868 18.868 0 0 1-18.864-18.864 18.863 18.863 0 1 1 37.728 0zm41.916 0c0 5.003-1.98 9.801-5.521 13.339a18.868 18.868 0 0 1-26.678 0 18.863 18.863 0 1 1 26.678-26.678 18.847 18.847 0 0 1 5.521 13.339zm41.92 0a18.85 18.85 0 0 1-5.52 13.339 18.879 18.879 0 0 1-13.34 5.525c-5 0-9.8-1.988-13.34-5.525a18.85 18.85 0 0 1-5.52-13.339 18.85 18.85 0 0 1 5.52-13.339 18.875 18.875 0 0 1 13.34-5.525c5 0 9.8 1.987 13.34 5.525a18.85 18.85 0 0 1 5.52 13.339zm-586.876 41.92a18.863 18.863 0 1 1-37.727.001 18.863 18.863 0 0 1 37.727-.001zm41.92 0a18.863 18.863 0 1 1-37.727.001 18.863 18.863 0 0 1 37.727-.001zm83.84 0a18.863 18.863 0 1 1-37.727.001 18.863 18.863 0 0 1 37.727-.001zm125.76 0a18.868 18.868 0 0 1-18.864 18.864 18.868 18.868 0 0 1-18.864-18.864 18.863 18.863 0 1 1 37.728 0zm41.92 0a18.868 18.868 0 0 1-18.864 18.864 18.868 18.868 0 0 1-18.864-18.864 18.863 18.863 0 1 1 37.728 0zm41.92 0a18.868 18.868 0 0 1-18.864 18.864 18.868 18.868 0 0 1-18.864-18.864 18.863 18.863 0 1 1 37.728 0zm41.92 0a18.868 18.868 0 0 1-18.864 18.864 18.868 18.868 0 0 1-18.864-18.864 18.863 18.863 0 1 1 37.728 0zm41.92 0a18.868 18.868 0 0 1-18.864 18.864 18.868 18.868 0 0 1-18.864-18.864 18.863 18.863 0 1 1 37.728 0zm83.84 0a18.868 18.868 0 0 1-18.864 18.864 18.868 18.868 0 0 1-18.864-18.864 18.863 18.863 0 1 1 37.728 0zm41.916 0c0 5.003-1.98 9.801-5.521 13.339a18.868 18.868 0 0 1-26.678 0 18.863 18.863 0 1 1 26.678-26.678 18.847 18.847 0 0 1 5.521 13.339zm-628.796 41.92a18.863 18.863 0 1 1-37.727.001 18.863 18.863 0 0 1 37.727-.001zm125.76 0a18.863 18.863 0 1 1-37.727.001 18.863 18.863 0 0 1 37.727-.001zm83.84 0a18.863 18.863 0 1 1-37.727.001 18.863 18.863 0 0 1 37.727-.001zm83.84 0a18.863 18.863 0 1 1-37.727.001 18.863 18.863 0 0 1 37.727-.001zm41.92 0a18.868 18.868 0 0 1-18.864 18.864 18.868 18.868 0 0 1-18.864-18.864 18.863 18.863 0 1 1 37.728 0zm83.84 0a18.868 18.868 0 0 1-18.864 18.864 18.868 18.868 0 0 1-18.864-18.864 18.863 18.863 0 1 1 37.728 0zm41.92 0a18.868 18.868 0 0 1-18.864 18.864 18.868 18.868 0 0 1-18.864-18.864 18.863 18.863 0 1 1 37.728 0zm41.92 0a18.868 18.868 0 0 1-18.864 18.864 18.868 18.868 0 0 1-18.864-18.864 18.863 18.863 0 1 1 37.728 0zm-419.2 41.92a18.863 18.863 0 1 1-37.727.001 18.863 18.863 0 0 1 37.727-.001zm83.84 0a18.863 18.863 0 1 1-37.727.001 18.863 18.863 0 0 1 37.727-.001zm125.76 0a18.863 18.863 0 1 1-37.727.001 18.863 18.863 0 0 1 37.727-.001zm167.68 0a18.868 18.868 0 0 1-18.864 18.864 18.868 18.868 0 0 1-18.864-18.864 18.863 18.863 0 1 1 37.728 0zm83.84 0a18.868 18.868 0 0 1-18.864 18.864 18.868 18.868 0 0 1-18.864-18.864 18.863 18.863 0 1 1 37.728 0zm41.92 0a18.868 18.868 0 0 1-18.864 18.864 18.868 18.868 0 0 1-18.864-18.864 18.863 18.863 0 1 1 37.728 0zm83.836 0a18.85 18.85 0 0 1-5.52 13.339 18.879 18.879 0 0 1-13.34 5.525c-5 0-9.8-1.988-13.34-5.525a18.85 18.85 0 0 1-5.52-13.339 18.85 18.85 0 0 1 5.52-13.339 18.875 18.875 0 0 1 13.34-5.525c5 0 9.8 1.987 13.34 5.525a18.85 18.85 0 0 1 5.52 13.339zm-670.716 41.92c0 5.003-1.987 9.801-5.525 13.339a18.847 18.847 0 0 1-13.339 5.521c-5.003 0-9.801-1.98-13.339-5.521a18.863 18.863 0 1 1 32.203-13.339zm41.92 0c0 5.003-1.987 9.801-5.525 13.339a18.847 18.847 0 0 1-13.339 5.521c-5.003 0-9.801-1.98-13.339-5.521a18.863 18.863 0 1 1 32.203-13.339zm41.92 0c0 5.003-1.987 9.801-5.525 13.339a18.847 18.847 0 0 1-13.339 5.521c-5.003 0-9.801-1.98-13.339-5.521a18.863 18.863 0 1 1 32.203-13.339zm41.92 0c0 5.003-1.987 9.801-5.525 13.339a18.847 18.847 0 0 1-13.339 5.521c-5.003 0-9.801-1.98-13.339-5.521a18.863 18.863 0 1 1 32.203-13.339zm41.92 0c0 5.003-1.987 9.801-5.525 13.339A18.847 18.847 0 0 1 524 1003.98c-5.003 0-9.801-1.98-13.339-5.521a18.863 18.863 0 1 1 32.203-13.339zm41.92 0c0 5.003-1.987 9.801-5.525 13.339a18.847 18.847 0 0 1-13.339 5.521c-5.003 0-9.801-1.98-13.339-5.521a18.863 18.863 0 1 1 32.203-13.339zm41.92 0c0 5.003-1.987 9.801-5.525 13.339a18.847 18.847 0 0 1-13.339 5.521c-5.003 0-9.801-1.98-13.339-5.521a18.863 18.863 0 1 1 32.203-13.339zm125.76 0c0 5.003-1.988 9.801-5.525 13.339a18.847 18.847 0 0 1-13.339 5.521c-5.003 0-9.801-1.98-13.339-5.521a18.863 18.863 0 1 1 32.203-13.339zm167.68 0c0 5.003-1.988 9.801-5.525 13.339a18.847 18.847 0 0 1-13.339 5.521c-5.003 0-9.801-1.98-13.339-5.521a18.863 18.863 0 1 1 32.203-13.339zm83.836 0a18.847 18.847 0 0 1-18.86 18.86c-5.003 0-9.801-1.98-13.339-5.521a18.863 18.863 0 1 1 26.678-26.678 18.847 18.847 0 0 1 5.521 13.339zm41.92 0a18.85 18.85 0 0 1-18.86 18.86 18.85 18.85 0 0 1-18.86-18.86 18.85 18.85 0 0 1 5.52-13.339 18.875 18.875 0 0 1 13.34-5.525c5 0 9.8 1.987 13.34 5.525a18.85 18.85 0 0 1 5.52 13.339zm-670.716 41.92c0 5-1.987 9.8-5.525 13.34a18.85 18.85 0 0 1-13.339 5.52 18.85 18.85 0 0 1-13.339-5.52 18.875 18.875 0 0 1-5.525-13.34c0-5 1.987-9.8 5.525-13.34a18.85 18.85 0 0 1 13.339-5.52 18.85 18.85 0 0 1 13.339 5.52 18.875 18.875 0 0 1 5.525 13.34zm167.68 0c0 5-1.987 9.8-5.525 13.34A18.85 18.85 0 0 1 524 1045.9a18.85 18.85 0 0 1-13.339-5.52 18.875 18.875 0 0 1-5.525-13.34c0-5 1.987-9.8 5.525-13.34a18.85 18.85 0 0 1 13.339-5.52 18.85 18.85 0 0 1 13.339 5.52 18.875 18.875 0 0 1 5.525 13.34zm41.92 0c0 5-1.987 9.8-5.525 13.34a18.85 18.85 0 0 1-13.339 5.52 18.85 18.85 0 0 1-13.339-5.52 18.875 18.875 0 0 1-5.525-13.34c0-5 1.987-9.8 5.525-13.34a18.85 18.85 0 0 1 13.339-5.52 18.85 18.85 0 0 1 13.339 5.52 18.875 18.875 0 0 1 5.525 13.34zm41.92 0c0 5-1.987 9.8-5.525 13.34a18.85 18.85 0 0 1-13.339 5.52 18.85 18.85 0 0 1-13.339-5.52 18.875 18.875 0 0 1-5.525-13.34c0-5 1.987-9.8 5.525-13.34a18.85 18.85 0 0 1 13.339-5.52 18.85 18.85 0 0 1 13.339 5.52 18.875 18.875 0 0 1 5.525 13.34zm41.92 0c0 5-1.987 9.8-5.525 13.34a18.85 18.85 0 0 1-13.339 5.52 18.85 18.85 0 0 1-13.339-5.52 18.875 18.875 0 0 1-5.525-13.34c0-5 1.987-9.8 5.525-13.34a18.85 18.85 0 0 1 13.339-5.52 18.85 18.85 0 0 1 13.339 5.52 18.875 18.875 0 0 1 5.525 13.34zm209.6 0c0 5-1.988 9.8-5.525 13.34a18.85 18.85 0 0 1-13.339 5.52 18.85 18.85 0 0 1-13.339-5.52 18.875 18.875 0 0 1-5.525-13.34c0-5 1.987-9.8 5.525-13.34a18.85 18.85 0 0 1 13.339-5.52 18.85 18.85 0 0 1 13.339 5.52 18.879 18.879 0 0 1 5.525 13.34zm41.92 0c0 5-1.988 9.8-5.525 13.34a18.85 18.85 0 0 1-13.339 5.52 18.85 18.85 0 0 1-13.339-5.52 18.875 18.875 0 0 1-5.525-13.34c0-5 1.987-9.8 5.525-13.34a18.85 18.85 0 0 1 13.339-5.52 18.85 18.85 0 0 1 13.339 5.52 18.879 18.879 0 0 1 5.525 13.34zm83.836 0a18.85 18.85 0 0 1-18.86 18.86 18.85 18.85 0 0 1-13.339-5.52 18.875 18.875 0 0 1-5.525-13.34c0-5 1.987-9.8 5.525-13.34a18.85 18.85 0 0 1 13.339-5.52 18.85 18.85 0 0 1 18.86 18.86zm41.92 0c0 5-1.98 9.8-5.52 13.34a18.861 18.861 0 0 1-13.34 5.52c-5 0-9.8-1.98-13.34-5.52a18.861 18.861 0 0 1-5.52-13.34c0-5 1.98-9.8 5.52-13.34 3.54-3.54 8.34-5.52 13.34-5.52s9.8 1.98 13.34 5.52c3.54 3.54 5.52 8.34 5.52 13.34zM0 146.72C0 0 0 0 146.72 0zm0 0c0 146.72 0 146.72 146.72 146.72zm146.72 146.72c146.72 0 146.72 0 146.72-146.72zm146.72-146.72C293.44 0 293.44 0 146.72 0zm0 0L146.72 293.44 0 146.72 146.72 0l146.72 146.72zm-251.52 0c0-104.8 0-104.8 104.8-104.8zm0 0c0 104.8 0 104.8 104.8 104.8zm104.8 104.8c104.8 0 104.8 0 104.8-104.8zm104.8-104.8c0-104.8 0-104.8-104.8-104.8zm0 0-104.8 104.8-104.8-104.8 104.8-104.8 104.8 104.8zm-167.68 0c0-62.88 0-62.88 62.88-62.88zm0 0c0 62.88 0 62.88 62.88 62.88zm62.88 62.88c62.88 0 62.88 0 62.88-62.88zm62.88-62.88c0-62.88 0-62.88-62.88-62.88zm0 0-62.88 62.88-62.88-62.88 62.88-62.88 62.88 62.88zm544.96 0C754.56 0 754.56 0 901.28 0zm0 0c0 146.72 0 146.72 146.72 146.72zm146.72 146.72c146.72 0 146.72 0 146.72-146.72zM1048 146.72C1048 0 1048 0 901.28 0zm0 0L901.28 293.44 754.56 146.72 901.28 0 1048 146.72zm-251.52 0c0-104.8 0-104.8 104.8-104.8zm0 0c0 104.8 0 104.8 104.8 104.8zm104.8 104.8c104.8 0 104.8 0 104.8-104.8zm104.8-104.8c0-104.8 0-104.8-104.8-104.8zm0 0-104.8 104.8-104.8-104.8 104.8-104.8 104.8 104.8zm-167.68 0c0-62.88 0-62.88 62.88-62.88zm0 0c0 62.88 0 62.88 62.88 62.88zm62.88 62.88c62.88 0 62.88 0 62.88-62.88zm62.88-62.88c0-62.88 0-62.88-62.88-62.88zm0 0-62.88 62.88-62.88-62.88 62.88-62.88 62.88 62.88zM0 901.28c0-146.72 0-146.72 146.72-146.72zm0 0C0 1048 0 1048 146.72 1048zM146.72 1048c146.72 0 146.72 0 146.72-146.72zm146.72-146.72c0-146.72 0-146.72-146.72-146.72zm0 0L146.72 1048 0 901.28l146.72-146.72 146.72 146.72zm-251.52 0c0-104.8 0-104.8 104.8-104.8zm0 0c0 104.8 0 104.8 104.8 104.8zm104.8 104.8c104.8 0 104.8 0 104.8-104.8zm104.8-104.8c0-104.8 0-104.8-104.8-104.8zm0 0-104.8 104.8-104.8-104.8 104.8-104.8 104.8 104.8zm-167.68 0c0-62.88 0-62.88 62.88-62.88zm0 0c0 62.88 0 62.88 62.88 62.88zm62.88 62.88c62.88 0 62.88 0 62.88-62.88zm62.88-62.88c0-62.88 0-62.88-62.88-62.88zm0 0-62.88 62.88-62.88-62.88 62.88-62.88 62.88 62.88z" clip-rule="evenodd"/><g clip-path="url(#b)"><circle cx="524" cy="524" r="146.72" fill="#1E1E1E"/><path fill="#fff" fill-rule="evenodd" d="M670.72 524c0 81.031-65.689 146.72-146.72 146.72S377.28 605.031 377.28 524 442.969 377.28 524 377.28 670.72 442.969 670.72 524zm-141.463-38.405c-14.269 5.936-42.791 18.221-85.563 36.856-6.945 2.762-10.584 5.464-10.915 8.106-.56 4.465 5.032 6.223 12.646 8.617 1.036.327 2.109.664 3.209 1.021 7.492 2.436 17.569 5.285 22.807 5.397 4.752.103 10.056-1.856 15.912-5.877 39.963-26.976 60.592-40.611 61.887-40.905.914-.207 2.18-.468 3.038.294.857.763.774 2.207.682 2.594-.554 2.361-22.503 22.768-33.862 33.328-3.54 3.291-6.052 5.626-6.565 6.16-1.151 1.195-2.323 2.325-3.45 3.411-6.959 6.709-12.178 11.74.289 19.956 5.992 3.948 10.786 7.213 15.569 10.47 5.224 3.558 10.433 7.106 17.174 11.525 1.718 1.126 3.357 2.295 4.956 3.433 6.079 4.334 11.54 8.227 18.287 7.606 3.921-.36 7.971-4.047 10.027-15.041 4.86-25.984 14.414-82.284 16.622-105.485.195-2.032-.049-4.634-.244-5.776-.196-1.141-.604-2.768-2.089-3.973-1.758-1.426-4.471-1.727-5.685-1.706-5.519.098-13.985 3.041-54.732 19.989z" clip-rule="evenodd"/></g></g><defs><clipPath id="a"><path fill="#fff" d="M0 0h1048v1048H0z"/></clipPath><clipPath id="b"><path fill="#fff" d="M377.28 377.28h293.44v293.44H377.28z"/></clipPath></defs></svg>